<?xml version="1.0" encoding="UTF-8"?>
<svg id="offre-abo-on" xmlns="http://www.w3.org/2000/svg" viewBox="0 0 30 38">
  <defs>
    <style>
      .cls-1 {
        fill: #f42f34;
      }

      .cls-2 {
        fill: #c2c2c2;
      }

      .cls-3 {
        fill: #fff;
      }

      .cls-4 {
        fill: #3c3c3c;
      }
    </style>
  </defs>
  <g>
    <path class="cls-3" d="M15,36.74c-2.72-2.14-13.93-11.6-13.93-21.81C1.07,7.25,7.32,1,15,1s13.93,6.25,13.93,13.93c0,10.22-11.21,19.67-13.93,21.81Z"/>
    <path class="cls-4" d="M15,2c7.13,0,12.93,5.8,12.93,12.93,0,9.13-9.54,17.75-12.93,20.53-3.39-2.77-12.93-11.38-12.93-20.53C2.07,7.8,7.87,2,15,2M15,0C6.76,0,.07,6.68.07,14.93c0,12.21,14.93,23.07,14.93,23.07,0,0,14.93-10.86,14.93-23.07C29.93,6.68,23.24,0,15,0h0Z"/>
  </g>
  <g>
    <circle class="cls-1" cx="15" cy="14.59" r="10.52"/>
    <path class="cls-2" d="M15,5.07c5.25,0,9.52,4.27,9.52,9.52s-4.27,9.52-9.52,9.52-9.52-4.27-9.52-9.52S9.75,5.07,15,5.07M15,4.07c-5.81,0-10.52,4.71-10.52,10.52s4.71,10.52,10.52,10.52,10.52-4.71,10.52-10.52-4.71-10.52-10.52-10.52h0Z"/>
  </g>
</svg>